<svg width="34" height="30" viewBox="0 0 34 30" fill="none" xmlns="http://www.w3.org/2000/svg">
<path d="M12.2549 5.66131C14.3666 2.44265 15.4216 0.833313 16.9999 0.833313C18.5783 0.833313 19.6333 2.44265 21.7449 5.66131L22.2916 6.49431C22.8916 7.40948 23.1916 7.86706 23.6583 8.16881C24.1249 8.47056 24.7083 8.58248 25.8749 8.80631L26.9349 9.01031C31.0349 9.79939 33.0833 10.1932 33.5716 11.5263C34.0583 12.858 32.6616 14.2477 29.8666 17.0258L29.1433 17.7441C28.3499 18.5331 27.9516 18.9284 27.7733 19.4157C27.5949 19.9045 27.6549 20.4315 27.7749 21.4841L27.8849 22.4431C28.3066 26.1506 28.5183 28.0036 27.2416 28.8266C25.9649 29.6511 24.0449 28.8989 20.2083 27.3972L19.2133 27.0091C18.1233 26.5812 17.5783 26.3687 16.9999 26.3687C16.4216 26.3687 15.8766 26.5812 14.7866 27.0091L13.7933 27.3972C9.95494 28.8989 8.03494 29.6497 6.75994 28.8281C5.48161 28.0036 5.69328 26.1506 6.11494 22.4431L6.22494 21.4855C6.34494 20.4315 6.40494 19.9045 6.22494 19.4171C6.04828 18.9284 5.64994 18.5331 4.85661 17.7455L4.13328 17.0258C1.33828 14.2491 -0.0583892 12.8594 0.428277 11.5263C0.916611 10.1932 2.96661 9.79798 7.06661 9.01031L8.12661 8.80631C9.29161 8.58248 9.87328 8.47056 10.3416 8.16881C10.8083 7.86706 11.1083 7.40948 11.7083 6.49431L12.2549 5.66131Z" fill="#413C58"/>
</svg>
